<svg xmlns="http://www.w3.org/2000/svg" xmlns:xlink="http://www.w3.org/1999/xlink" viewBox="0 0 100 100"><defs><style>.cls-1,.cls-3{fill:none;}.cls-2{clip-path:url(#clip-path);}.cls-3{stroke:#fff;}</style><clipPath id="clip-path"><rect class="cls-1" x="33" y="21" width="35.6" height="64"/></clipPath></defs><title>Element 34dude</title><g id="Ebene_2" data-name="Ebene 2"><g id="Ebene_1-2" data-name="Ebene 1"><circle class="cls-1" cx="50" cy="50" r="50"/><g class="cls-2"><path class="cls-3" d="M34.08,85V80.84c0-7.46-1.15-16.13,1.87-23.19A13.68,13.68,0,0,1,43.72,50c4.34-1.8,10.57-3,14.55.26,3.56,2.91,5.42,9,6.71,13.16s2.46,8.8,2.29,13.34c-.08,2.16.63,4.21.46,6.35"/><path class="cls-3" d="M54.27,24.92c-5.18,0-14.44-1.92-17.48,3.51-1.79,3.18-1.53,10.3,0,13.47,2.35,5,9.32,7,14.36,7.52,8.38.92,13.78-5.76,13.8-13.74,0-5.37-1.4-8.82-6.29-11.25A59,59,0,0,0,51,21.84,12,12,0,0,0,42.74,24"/><path class="cls-3" d="M51.87,33.57c-.36-2.08,1.46-1.6,2.74-.92,1.69.9,3.78,3,1.86,4.77a1.89,1.89,0,0,1-3.09-.57c-.48-1.16-.07-3-.07-4.24"/><path class="cls-3" d="M56.67,40.3c-.75,1.63-2.21,4.57-4.26,4.29a5.23,5.23,0,0,1-1.5-.64c-1.37-.36-2.73-.77-4.06-1.24-1-.45-2.56-1.09-2.67-2.41"/><path class="cls-3" d="M47.06,32.13c-3.15-.88-4.64,6.34,1.21,4.37,1.46-.49,3.42-.49,3.11-2.25a4,4,0,0,0-2.89-3.08c-.65-.15-2.06-.32-2.39.48"/></g></g></g></svg>