<svg xmlns="http://www.w3.org/2000/svg" viewBox="0 0 100 100"><defs><style>.cls-1{fill:#fff;}.cls-2{fill:none;stroke:#fff;stroke-miterlimit:10;stroke-width:5px;}</style></defs><title>Element 19rrr</title><g id="Ebene_2" data-name="Ebene 2"><g id="Ebene_1-2" data-name="Ebene 1"><path class="cls-1" d="M50,5A45,45,0,1,1,5,50,45.05,45.05,0,0,1,50,5m0-5a50,50,0,1,0,50,50A50,50,0,0,0,50,0Z"/><path class="cls-2" d="M70.23,49.09a20.23,20.23,0,0,1-40.46,0"/><path class="cls-2" d="M36.77,81.69h9.39v-12h7.12v12H62.7v3.06H36.77Z"/><path class="cls-2" d="M54.33,15.66c5.24,1.58,8.84,5.67,8.91,10.49.1,8.11.13,16.22,0,24.33-.12,6.19-6,11-13.13,11.05S36.89,56.75,36.78,50.47c-.15-8.11-.12-16.22,0-24.33.07-5,4-9.23,9.5-10.69A15.71,15.71,0,0,1,49.83,15,17,17,0,0,1,54.33,15.66Z"/><line class="cls-2" x1="13.5" y1="16.5" x2="82" y2="85"/></g></g></svg>