<?xml version="1.0" standalone="no"?>
<!DOCTYPE svg PUBLIC "-//W3C//DTD SVG 20010904//EN"
 "http://www.w3.org/TR/2001/REC-SVG-20010904/DTD/svg10.dtd">
<svg version="1.0" xmlns="http://www.w3.org/2000/svg"
 width="700.000000pt" height="700.000000pt" viewBox="0 0 700.000000 700.000000"
 preserveAspectRatio="xMidYMid meet">
<metadata>
Created by potrace 1.11, written by Peter Selinger 2001-2013
</metadata>
<g transform="translate(0.000000,700.000000) scale(0.100000,-0.100000)"
fill="#000000" stroke="none">
<path d="M3477 6184 c-1 -1 -40 -4 -87 -5 -102 -3 -334 -29 -390 -44 -8 -2
-31 -7 -50 -10 -79 -13 -347 -93 -435 -130 -16 -7 -50 -21 -75 -31 -216 -90
-484 -258 -697 -437 -48 -40 -217 -211 -270 -272 -101 -117 -237 -307 -283
-395 -7 -14 -16 -27 -20 -30 -13 -10 -140 -278 -171 -361 -54 -144 -107 -323
-124 -414 -16 -87 -36 -217 -40 -265 -3 -30 -8 -75 -10 -100 -6 -57 -6 -337
-1 -370 3 -14 7 -60 10 -104 4 -43 8 -81 10 -85 2 -3 7 -30 10 -60 4 -30 14
-86 22 -124 9 -38 17 -74 18 -81 8 -34 21 -82 51 -176 279 -889 1015 -1576
1925 -1796 58 -14 114 -27 125 -29 46 -8 183 -28 220 -33 77 -8 471 -10 535
-2 36 5 92 12 125 15 33 4 92 14 130 22 39 8 81 16 95 19 24 4 68 16 188 51
450 131 919 437 1240 808 304 351 522 804 607 1260 19 105 18 93 41 300 5 42
5 343 0 385 -2 19 -7 68 -10 107 -6 63 -17 131 -41 258 -31 164 -121 425 -209
609 -69 146 -192 348 -273 451 -140 178 -258 302 -388 412 -49 41 -102 86
-116 98 -69 60 -320 214 -454 280 -182 89 -418 175 -543 200 -9 1 -35 8 -57
13 -34 9 -125 25 -265 46 -30 5 -107 10 -292 20 -27 2 -49 1 -51 0z m273 -318
c14 -3 45 -8 70 -10 25 -3 56 -7 70 -10 13 -3 42 -8 65 -11 22 -4 65 -13 95
-21 30 -8 65 -17 78 -20 43 -9 208 -67 300 -105 207 -86 424 -219 617 -379 80
-67 265 -263 336 -356 270 -356 421 -723 480 -1169 13 -101 17 -412 7 -520
-22 -218 -83 -462 -165 -660 -27 -65 -115 -248 -135 -280 -160 -255 -232 -348
-378 -495 -397 -400 -886 -634 -1455 -698 -156 -17 -543 1 -671 31 -12 3 -39
8 -60 11 -62 10 -251 66 -349 103 -81 31 -279 124 -330 155 -171 105 -297 194
-389 277 -75 66 -221 215 -261 266 -22 28 -42 52 -45 55 -18 18 -96 130 -146
210 -244 388 -365 824 -359 1290 2 177 5 206 30 361 62 376 222 741 467 1066
85 113 268 301 383 393 204 162 477 313 720 397 71 24 265 77 319 87 63 11
233 36 271 39 63 5 407 0 435 -7z"/>
</g>
</svg>
